<?xml version="1.0" encoding="utf-8" ?>
<svg baseProfile="full" height="8415" version="1.1" width="5950" xmlns="http://www.w3.org/2000/svg" xmlns:ev="http://www.w3.org/2001/xml-events" xmlns:xlink="http://www.w3.org/1999/xlink"><defs /><rect fill="none" height="73" stroke="black" stroke-width="0.5" width="24" x="230" y="3699" /><text fill="rgb(217,58,37)" font-family="Courier New" font-size="12" x="230" y="3772">V</text><rect fill="none" height="81" stroke="black" stroke-width="0.5" width="54" x="4994" y="3665" /><text fill="rgb(159,209,141)" font-family="Courier New" font-size="12" x="4994" y="3746">i</text><rect fill="none" height="80" stroke="black" stroke-width="0.5" width="31" x="4939" y="3665" /><text fill="rgb(100,181,69)" font-family="Courier New" font-size="12" x="4939" y="3745">v</text><rect fill="none" height="80" stroke="black" stroke-width="0.5" width="32" x="4876" y="3665" /><text fill="rgb(111,187,83)" font-family="Courier New" font-size="12" x="4876" y="3745">a</text><rect fill="none" height="81" stroke="black" stroke-width="0.5" width="55" x="4810" y="3665" /><text fill="rgb(159,209,140)" font-family="Courier New" font-size="12" x="4810" y="3746"> </text><rect fill="none" height="80" stroke="black" stroke-width="0.5" width="31" x="4754" y="3665" /><text fill="rgb(100,181,69)" font-family="Courier New" font-size="12" x="4754" y="3745">P</text><rect fill="none" height="80" stroke="black" stroke-width="0.5" width="31" x="4694" y="3665" /><text fill="rgb(100,181,69)" font-family="Courier New" font-size="12" x="4694" y="3745">a</text><rect fill="none" height="80" stroke="black" stroke-width="0.5" width="32" x="4631" y="3665" /><text fill="rgb(111,187,83)" font-family="Courier New" font-size="12" x="4631" y="3745">l</text><rect fill="none" height="81" stroke="black" stroke-width="0.5" width="55" x="4565" y="3665" /><text fill="rgb(159,209,140)" font-family="Courier New" font-size="12" x="4565" y="3746">e</text><rect fill="none" height="80" stroke="black" stroke-width="0.5" width="31" x="4479" y="3665" /><text fill="rgb(100,181,69)" font-family="Courier New" font-size="12" x="4479" y="3745">s</text><rect fill="none" height="81" stroke="black" stroke-width="0.5" width="54" x="4414" y="3665" /><text fill="rgb(160,209,141)" font-family="Courier New" font-size="12" x="4414" y="3746">t</text><rect fill="none" height="81" stroke="black" stroke-width="0.5" width="55" x="4350" y="3665" /><text fill="rgb(159,209,140)" font-family="Courier New" font-size="12" x="4350" y="3746">i</text><rect fill="none" height="80" stroke="black" stroke-width="0.5" width="32" x="4296" y="3665" /><text fill="rgb(111,187,83)" font-family="Courier New" font-size="12" x="4296" y="3745">n</text><rect fill="none" height="81" stroke="black" stroke-width="0.5" width="54" x="4229" y="3665" /><text fill="rgb(159,209,140)" font-family="Courier New" font-size="12" x="4229" y="3746">a</text></svg>