<?xml version="1.0" encoding="utf-8" ?>
<svg baseProfile="full" height="8415" version="1.1" width="5950" xmlns="http://www.w3.org/2000/svg" xmlns:ev="http://www.w3.org/2001/xml-events" xmlns:xlink="http://www.w3.org/1999/xlink"><defs /><rect fill="none" height="85" stroke="black" stroke-width="0.5" width="40" x="223" y="3692" /><text fill="rgb(232,138,126)" font-family="Courier New" font-size="12" x="223" y="3777">W</text><rect fill="none" height="89" stroke="black" stroke-width="0.5" width="66" x="4987" y="3663" /><text fill="rgb(172,215,156)" font-family="Courier New" font-size="12" x="4987" y="3752">7</text><rect fill="none" height="84" stroke="black" stroke-width="0.5" width="46" x="4933" y="3663" /><text fill="rgb(154,207,134)" font-family="Courier New" font-size="12" x="4933" y="3747">F</text><rect fill="none" height="84" stroke="black" stroke-width="0.5" width="39" x="4873" y="3663" /><text fill="rgb(154,207,134)" font-family="Courier New" font-size="12" x="4873" y="3747">?</text><rect fill="none" height="90" stroke="black" stroke-width="0.5" width="59" x="4563" y="3663" /><text fill="rgb(170,215,154)" font-family="Courier New" font-size="12" x="4563" y="3753">P</text><rect fill="none" height="84" stroke="black" stroke-width="0.5" width="39" x="4293" y="3663" /><text fill="rgb(152,206,132)" font-family="Courier New" font-size="12" x="4293" y="3747">a</text><rect fill="none" height="90" stroke="black" stroke-width="0.5" width="59" x="4043" y="3663" /><text fill="rgb(170,215,154)" font-family="Courier New" font-size="12" x="4043" y="3753">l</text><rect fill="none" height="89" stroke="black" stroke-width="0.5" width="66" x="3947" y="3663" /><text fill="rgb(172,215,156)" font-family="Courier New" font-size="12" x="3947" y="3752">e</text><rect fill="none" height="84" stroke="black" stroke-width="0.5" width="46" x="3893" y="3663" /><text fill="rgb(154,207,134)" font-family="Courier New" font-size="12" x="3893" y="3747">s</text><rect fill="none" height="84" stroke="black" stroke-width="0.5" width="39" x="3833" y="3663" /><text fill="rgb(154,207,134)" font-family="Courier New" font-size="12" x="3833" y="3747">t</text><rect fill="none" height="90" stroke="black" stroke-width="0.5" width="60" x="3523" y="3663" /><text fill="rgb(171,215,154)" font-family="Courier New" font-size="12" x="3523" y="3753">i</text><rect fill="none" height="89" stroke="black" stroke-width="0.5" width="60" x="2942" y="3663" /><text fill="rgb(171,215,154)" font-family="Courier New" font-size="12" x="2942" y="3752">n</text><rect fill="none" height="84" stroke="black" stroke-width="0.5" width="39" x="2763" y="3663" /><text fill="rgb(152,206,132)" font-family="Courier New" font-size="12" x="2763" y="3747">a</text><rect fill="none" height="89" stroke="black" stroke-width="0.5" width="59" x="2698" y="3663" /><text fill="rgb(170,214,153)" font-family="Courier New" font-size="12" x="2698" y="3752">V</text><rect fill="none" height="84" stroke="black" stroke-width="0.5" width="40" x="2643" y="3663" /><text fill="rgb(152,206,132)" font-family="Courier New" font-size="12" x="2643" y="3747">i</text><rect fill="none" height="89" stroke="black" stroke-width="0.5" width="59" x="2178" y="3663" /><text fill="rgb(170,214,153)" font-family="Courier New" font-size="12" x="2178" y="3752">v</text><rect fill="none" height="84" stroke="black" stroke-width="0.5" width="40" x="2123" y="3663" /><text fill="rgb(152,206,132)" font-family="Courier New" font-size="12" x="2123" y="3747">a</text><rect fill="none" height="84" stroke="black" stroke-width="0.5" width="40" x="1663" y="3663" /><text fill="rgb(152,206,132)" font-family="Courier New" font-size="12" x="1663" y="3747"> </text><rect fill="none" height="84" stroke="black" stroke-width="0.5" width="39" x="1603" y="3663" /><text fill="rgb(152,206,132)" font-family="Courier New" font-size="12" x="1603" y="3747">P</text><rect fill="none" height="84" stroke="black" stroke-width="0.5" width="40" x="1328" y="3663" /><text fill="rgb(153,206,133)" font-family="Courier New" font-size="12" x="1328" y="3747">a</text><rect fill="none" height="89" stroke="black" stroke-width="0.5" width="125" x="1197" y="3663" /><text fill="rgb(171,215,155)" font-family="Courier New" font-size="12" x="1197" y="3752">j</text></svg>