<?xml version="1.0" encoding="utf-8" ?>
<svg baseProfile="full" height="8415" version="1.1" width="5950" xmlns="http://www.w3.org/2000/svg" xmlns:ev="http://www.w3.org/2001/xml-events" xmlns:xlink="http://www.w3.org/1999/xlink"><defs /><rect fill="none" height="13" stroke="black" stroke-width="0.5" width="12" x="4931" y="7697" /><text fill="rgb(254,254,254)" font-family="Courier New" font-size="12" x="4931" y="7710">C</text><rect fill="none" height="80" stroke="black" stroke-width="0.5" width="36" x="4987" y="7663" /><text fill="rgb(120,120,120)" font-family="Courier New" font-size="12" x="4987" y="7743">a</text><rect fill="none" height="79" stroke="black" stroke-width="0.5" width="34" x="4933" y="7663" /><text fill="rgb(118,118,118)" font-family="Courier New" font-size="12" x="4933" y="7742">r</text><rect fill="none" height="91" stroke="black" stroke-width="0.5" width="37" x="4878" y="7663" /><text fill="rgb(126,126,126)" font-family="Courier New" font-size="12" x="4878" y="7754">n</text><rect fill="none" height="91" stroke="black" stroke-width="0.5" width="110" x="4567" y="7663" /><text fill="rgb(144,144,144)" font-family="Courier New" font-size="12" x="4567" y="7754">e</text><rect fill="none" height="80" stroke="black" stroke-width="0.5" width="40" x="4458" y="7663" /><text fill="rgb(129,129,129)" font-family="Courier New" font-size="12" x="4458" y="7743"> </text><rect fill="none" height="80" stroke="black" stroke-width="0.5" width="36" x="3987" y="7663" /><text fill="rgb(120,120,120)" font-family="Courier New" font-size="12" x="3987" y="7743">d</text><rect fill="none" height="80" stroke="black" stroke-width="0.5" width="34" x="3933" y="7663" /><text fill="rgb(119,119,119)" font-family="Courier New" font-size="12" x="3933" y="7743">e</text><rect fill="none" height="84" stroke="black" stroke-width="0.5" width="54" x="3873" y="7663" /><text fill="rgb(143,143,143)" font-family="Courier New" font-size="12" x="3873" y="7747"> </text><rect fill="none" height="80" stroke="black" stroke-width="0.5" width="35" x="3628" y="7663" /><text fill="rgb(120,120,120)" font-family="Courier New" font-size="12" x="3628" y="7743">y</text><rect fill="none" height="91" stroke="black" stroke-width="0.5" width="56" x="3567" y="7663" /><text fill="rgb(144,144,144)" font-family="Courier New" font-size="12" x="3567" y="7754">u</text><rect fill="none" height="85" stroke="black" stroke-width="0.5" width="100" x="3398" y="7663" /><text fill="rgb(140,140,140)" font-family="Courier New" font-size="12" x="3398" y="7748">g</text><rect fill="none" height="91" stroke="black" stroke-width="0.5" width="110" x="2927" y="7663" /><text fill="rgb(144,144,144)" font-family="Courier New" font-size="12" x="2927" y="7754">o</text><rect fill="none" height="85" stroke="black" stroke-width="0.5" width="100" x="2453" y="7663" /><text fill="rgb(140,140,140)" font-family="Courier New" font-size="12" x="2453" y="7748">,</text><rect fill="none" height="79" stroke="black" stroke-width="0.5" width="39" x="2263" y="7663" /><text fill="rgb(129,129,129)" font-family="Courier New" font-size="12" x="2263" y="7742"> </text><rect fill="none" height="85" stroke="black" stroke-width="0.5" width="60" x="2147" y="7663" /><text fill="rgb(145,145,145)" font-family="Courier New" font-size="12" x="2147" y="7748">h</text><rect fill="none" height="79" stroke="black" stroke-width="0.5" width="35" x="2097" y="7663" /><text fill="rgb(119,119,119)" font-family="Courier New" font-size="12" x="2097" y="7742">a</text><rect fill="none" height="86" stroke="black" stroke-width="0.5" width="54" x="1983" y="7663" /><text fill="rgb(144,144,144)" font-family="Courier New" font-size="12" x="1983" y="7749"> </text><rect fill="none" height="80" stroke="black" stroke-width="0.5" width="35" x="1628" y="7663" /><text fill="rgb(120,120,120)" font-family="Courier New" font-size="12" x="1628" y="7743">n</text><rect fill="none" height="80" stroke="black" stroke-width="0.5" width="35" x="1433" y="7663" /><text fill="rgb(124,124,124)" font-family="Courier New" font-size="12" x="1433" y="7743">a</text><rect fill="none" height="79" stroke="black" stroke-width="0.5" width="40" x="1373" y="7663" /><text fill="rgb(130,130,130)" font-family="Courier New" font-size="12" x="1373" y="7742">c</text><rect fill="none" height="80" stroke="black" stroke-width="0.5" width="40" x="1153" y="7663" /><text fill="rgb(130,130,130)" font-family="Courier New" font-size="12" x="1153" y="7743">i</text><rect fill="none" height="79" stroke="black" stroke-width="0.5" width="35" x="1097" y="7663" /><text fill="rgb(121,121,121)" font-family="Courier New" font-size="12" x="1097" y="7742">d</text><rect fill="none" height="82" stroke="black" stroke-width="0.5" width="35" x="848" y="7663" /><text fill="rgb(123,123,123)" font-family="Courier New" font-size="12" x="848" y="7745">o</text><rect fill="none" height="80" stroke="black" stroke-width="0.5" width="35" x="793" y="7663" /><text fill="rgb(124,124,124)" font-family="Courier New" font-size="12" x="793" y="7743">?</text><rect fill="none" height="85" stroke="black" stroke-width="0.5" width="60" x="5203" y="7662" /><text fill="rgb(146,146,146)" font-family="Courier New" font-size="12" x="5203" y="7747">m</text><rect fill="none" height="85" stroke="black" stroke-width="0.5" width="54" x="4818" y="7662" /><text fill="rgb(143,143,143)" font-family="Courier New" font-size="12" x="4818" y="7747">Ã</text><rect fill="none" height="86" stroke="black" stroke-width="0.5" width="56" x="4732" y="7662" /><text fill="rgb(142,142,142)" font-family="Courier New" font-size="12" x="4732" y="7748">¡</text><rect fill="none" height="80" stroke="black" stroke-width="0.5" width="34" x="4683" y="7662" /><text fill="rgb(123,123,123)" font-family="Courier New" font-size="12" x="4683" y="7742">s</text><rect fill="none" height="85" stroke="black" stroke-width="0.5" width="99" x="4343" y="7662" /><text fill="rgb(140,140,140)" font-family="Courier New" font-size="12" x="4343" y="7747"> </text><rect fill="none" height="85" stroke="black" stroke-width="0.5" width="100" x="4203" y="7662" /><text fill="rgb(141,141,141)" font-family="Courier New" font-size="12" x="4203" y="7747">h</text><rect fill="none" height="93" stroke="black" stroke-width="0.5" width="166" x="3676" y="7662" /><text fill="rgb(145,145,145)" font-family="Courier New" font-size="12" x="3676" y="7755">u</text><rect fill="none" height="86" stroke="black" stroke-width="0.5" width="279" x="3093" y="7662" /><text fill="rgb(143,143,143)" font-family="Courier New" font-size="12" x="3093" y="7748">m</text><rect fill="none" height="80" stroke="black" stroke-width="0.5" width="34" x="3043" y="7662" /><text fill="rgb(123,123,123)" font-family="Courier New" font-size="12" x="3043" y="7742">i</text><rect fill="none" height="80" stroke="black" stroke-width="0.5" width="39" x="2848" y="7662" /><text fill="rgb(129,129,129)" font-family="Courier New" font-size="12" x="2848" y="7742">l</text><rect fill="none" height="93" stroke="black" stroke-width="0.5" width="220" x="2623" y="7662" /><text fill="rgb(145,145,145)" font-family="Courier New" font-size="12" x="2623" y="7755">l</text><rect fill="none" height="80" stroke="black" stroke-width="0.5" width="39" x="2568" y="7662" /><text fill="rgb(129,129,129)" font-family="Courier New" font-size="12" x="2568" y="7742">a</text><rect fill="none" height="80" stroke="black" stroke-width="0.5" width="39" x="2208" y="7662" /><text fill="rgb(129,129,129)" font-family="Courier New" font-size="12" x="2208" y="7742">d</text><rect fill="none" height="80" stroke="black" stroke-width="0.5" width="34" x="2043" y="7662" /><text fill="rgb(123,123,123)" font-family="Courier New" font-size="12" x="2043" y="7742">o</text><rect fill="none" height="86" stroke="black" stroke-width="0.5" width="115" x="1508" y="7662" /><text fill="rgb(144,144,144)" font-family="Courier New" font-size="12" x="1508" y="7748"> </text><rect fill="none" height="81" stroke="black" stroke-width="0.5" width="40" x="1318" y="7662" /><text fill="rgb(131,131,131)" font-family="Courier New" font-size="12" x="1318" y="7743">q</text><rect fill="none" height="85" stroke="black" stroke-width="0.5" width="100" x="1203" y="7662" /><text fill="rgb(141,141,141)" font-family="Courier New" font-size="12" x="1203" y="7747">u</text><rect fill="none" height="86" stroke="black" stroke-width="0.5" width="55" x="1038" y="7662" /><text fill="rgb(143,143,143)" font-family="Courier New" font-size="12" x="1038" y="7748">e</text><rect fill="none" height="85" stroke="black" stroke-width="0.5" width="101" x="897" y="7662" /><text fill="rgb(140,140,140)" font-family="Courier New" font-size="12" x="897" y="7747"> </text><rect fill="none" height="86" stroke="black" stroke-width="0.5" width="55" x="732" y="7662" /><text fill="rgb(142,142,142)" font-family="Courier New" font-size="12" x="732" y="7748">b</text><rect fill="none" height="80" stroke="black" stroke-width="0.5" width="34" x="683" y="7662" /><text fill="rgb(123,123,123)" font-family="Courier New" font-size="12" x="683" y="7742">e</text><rect fill="none" height="85" stroke="black" stroke-width="0.5" width="100" x="563" y="7662" /><text fill="rgb(141,141,141)" font-family="Courier New" font-size="12" x="563" y="7747">l</text><rect fill="none" height="83" stroke="black" stroke-width="0.5" width="47" x="4513" y="7660" /><text fill="rgb(133,133,133)" font-family="Courier New" font-size="12" x="4513" y="7743">l</text><rect fill="none" height="83" stroke="black" stroke-width="0.5" width="47" x="3513" y="7660" /><text fill="rgb(133,133,133)" font-family="Courier New" font-size="12" x="3513" y="7743">o</text><rect fill="none" height="101" stroke="black" stroke-width="0.5" width="281" x="1676" y="7658" /><text fill="rgb(145,145,145)" font-family="Courier New" font-size="12" x="1676" y="7759">,</text><rect fill="none" height="92" stroke="black" stroke-width="0.5" width="162" x="5038" y="7656" /><text fill="rgb(143,143,143)" font-family="Courier New" font-size="12" x="5038" y="7748">?</text><rect fill="none" height="92" stroke="black" stroke-width="0.5" width="162" x="4038" y="7656" /><text fill="rgb(142,142,142)" font-family="Courier New" font-size="12" x="4038" y="7748">c</text><rect fill="none" height="95" stroke="black" stroke-width="0.5" width="115" x="2313" y="7655" /><text fill="rgb(148,148,148)" font-family="Courier New" font-size="12" x="2313" y="7750">n</text><rect fill="none" height="79" stroke="black" stroke-width="0.5" width="35" x="2177" y="7543" /><text fill="rgb(119,119,119)" font-family="Courier New" font-size="12" x="2177" y="7622">Ü</text><rect fill="none" height="80" stroke="black" stroke-width="0.5" width="35" x="2068" y="7543" /><text fill="rgb(120,120,120)" font-family="Courier New" font-size="12" x="2068" y="7623">@</text><rect fill="none" height="85" stroke="black" stroke-width="0.5" width="59" x="1948" y="7543" /><text fill="rgb(145,145,145)" font-family="Courier New" font-size="12" x="1948" y="7628">Ê</text><rect fill="none" height="86" stroke="black" stroke-width="0.5" width="40" x="1898" y="7543" /><text fill="rgb(131,131,131)" font-family="Courier New" font-size="12" x="1898" y="7629">Ø</text><rect fill="none" height="80" stroke="black" stroke-width="0.5" width="40" x="903" y="7543" /><text fill="rgb(130,130,130)" font-family="Courier New" font-size="12" x="903" y="7623">@</text><rect fill="none" height="80" stroke="black" stroke-width="0.5" width="34" x="2123" y="7542" /><text fill="rgb(123,123,123)" font-family="Courier New" font-size="12" x="2123" y="7622">Æ</text><rect fill="none" height="80" stroke="black" stroke-width="0.5" width="40" x="2008" y="7542" /><text fill="rgb(130,130,130)" font-family="Courier New" font-size="12" x="2008" y="7622">ê</text><rect fill="none" height="85" stroke="black" stroke-width="0.5" width="99" x="1783" y="7542" /><text fill="rgb(140,140,140)" font-family="Courier New" font-size="12" x="1783" y="7627">Ê</text><rect fill="none" height="81" stroke="black" stroke-width="0.5" width="40" x="958" y="7542" /><text fill="rgb(131,131,131)" font-family="Courier New" font-size="12" x="958" y="7623">Ø</text><rect fill="none" height="97" stroke="black" stroke-width="0.5" width="166" x="732" y="7542" /><text fill="rgb(144,144,144)" font-family="Courier New" font-size="12" x="732" y="7639">Ø</text><rect fill="none" height="80" stroke="black" stroke-width="0.5" width="34" x="683" y="7542" /><text fill="rgb(123,123,123)" font-family="Courier New" font-size="12" x="683" y="7622">Þ</text><rect fill="none" height="85" stroke="black" stroke-width="0.5" width="100" x="563" y="7542" /><text fill="rgb(141,141,141)" font-family="Courier New" font-size="12" x="563" y="7627">@</text><rect fill="none" height="82" stroke="black" stroke-width="0.5" width="35" x="848" y="7423" /><text fill="rgb(123,123,123)" font-family="Courier New" font-size="12" x="848" y="7505">à</text><rect fill="none" height="80" stroke="black" stroke-width="0.5" width="35" x="793" y="7423" /><text fill="rgb(124,124,124)" font-family="Courier New" font-size="12" x="793" y="7503">Ê</text><rect fill="none" height="88" stroke="black" stroke-width="0.5" width="280" x="1948" y="7422" /><text fill="rgb(145,145,145)" font-family="Courier New" font-size="12" x="1948" y="7510">ä</text><rect fill="none" height="87" stroke="black" stroke-width="0.5" width="155" x="1783" y="7422" /><text fill="rgb(142,142,142)" font-family="Courier New" font-size="12" x="1783" y="7509">æ</text><rect fill="none" height="86" stroke="black" stroke-width="0.5" width="55" x="732" y="7422" /><text fill="rgb(142,142,142)" font-family="Courier New" font-size="12" x="732" y="7508">Ê</text><rect fill="none" height="80" stroke="black" stroke-width="0.5" width="34" x="683" y="7422" /><text fill="rgb(123,123,123)" font-family="Courier New" font-size="12" x="683" y="7502">Î</text><rect fill="none" height="85" stroke="black" stroke-width="0.5" width="114" x="563" y="7422" /><text fill="rgb(144,144,144)" font-family="Courier New" font-size="12" x="563" y="7507">ê</text><rect fill="none" height="92" stroke="black" stroke-width="0.5" width="115" x="897" y="7416" /><text fill="rgb(145,145,145)" font-family="Courier New" font-size="12" x="897" y="7508">Ò</text><rect fill="none" height="84" stroke="black" stroke-width="0.5" width="60" x="2087" y="7303" /><text fill="rgb(145,145,145)" font-family="Courier New" font-size="12" x="2087" y="7387">È</text><rect fill="none" height="80" stroke="black" stroke-width="0.5" width="35" x="1873" y="7303" /><text fill="rgb(124,124,124)" font-family="Courier New" font-size="12" x="1873" y="7383">Þ</text><rect fill="none" height="79" stroke="black" stroke-width="0.5" width="34" x="1818" y="7303" /><text fill="rgb(119,119,119)" font-family="Courier New" font-size="12" x="1818" y="7382">?</text><rect fill="none" height="80" stroke="black" stroke-width="0.5" width="40" x="903" y="7303" /><text fill="rgb(130,130,130)" font-family="Courier New" font-size="12" x="903" y="7383">à</text><rect fill="none" height="81" stroke="black" stroke-width="0.5" width="40" x="2148" y="7302" /><text fill="rgb(130,130,130)" font-family="Courier New" font-size="12" x="2148" y="7383">Þ</text><rect fill="none" height="81" stroke="black" stroke-width="0.5" width="40" x="2038" y="7302" /><text fill="rgb(131,131,131)" font-family="Courier New" font-size="12" x="2038" y="7383">ä</text><rect fill="none" height="97" stroke="black" stroke-width="0.5" width="110" x="1922" y="7302" /><text fill="rgb(145,145,145)" font-family="Courier New" font-size="12" x="1922" y="7399">@</text><rect fill="none" height="81" stroke="black" stroke-width="0.5" width="40" x="958" y="7302" /><text fill="rgb(131,131,131)" font-family="Courier New" font-size="12" x="958" y="7383">Ê</text><rect fill="none" height="97" stroke="black" stroke-width="0.5" width="166" x="732" y="7302" /><text fill="rgb(144,144,144)" font-family="Courier New" font-size="12" x="732" y="7399">Ø</text><rect fill="none" height="80" stroke="black" stroke-width="0.5" width="34" x="683" y="7302" /><text fill="rgb(123,123,123)" font-family="Courier New" font-size="12" x="683" y="7382">@</text><rect fill="none" height="85" stroke="black" stroke-width="0.5" width="100" x="563" y="7302" /><text fill="rgb(141,141,141)" font-family="Courier New" font-size="12" x="563" y="7387">ò</text><rect fill="none" height="92" stroke="black" stroke-width="0.5" width="67" x="1752" y="7296" /><text fill="rgb(149,149,149)" font-family="Courier New" font-size="12" x="1752" y="7388">ê</text><rect fill="none" height="80" stroke="black" stroke-width="0.5" width="36" x="1817" y="7183" /><text fill="rgb(121,121,121)" font-family="Courier New" font-size="12" x="1817" y="7263">Î</text><rect fill="none" height="79" stroke="black" stroke-width="0.5" width="39" x="903" y="7183" /><text fill="rgb(129,129,129)" font-family="Courier New" font-size="12" x="903" y="7262">Þ</text><rect fill="none" height="82" stroke="black" stroke-width="0.5" width="34" x="848" y="7183" /><text fill="rgb(123,123,123)" font-family="Courier New" font-size="12" x="848" y="7265">@</text><rect fill="none" height="80" stroke="black" stroke-width="0.5" width="35" x="793" y="7183" /><text fill="rgb(124,124,124)" font-family="Courier New" font-size="12" x="793" y="7263">à</text><rect fill="none" height="85" stroke="black" stroke-width="0.5" width="101" x="1697" y="7182" /><text fill="rgb(140,140,140)" font-family="Courier New" font-size="12" x="1697" y="7267">Â</text><rect fill="none" height="88" stroke="black" stroke-width="0.5" width="111" x="676" y="7182" /><text fill="rgb(145,145,145)" font-family="Courier New" font-size="12" x="676" y="7270">ä</text><rect fill="none" height="85" stroke="black" stroke-width="0.5" width="100" x="563" y="7182" /><text fill="rgb(141,141,141)" font-family="Courier New" font-size="12" x="563" y="7267">Â</text><rect fill="none" height="103" stroke="black" stroke-width="0.5" width="266" x="1867" y="7176" /><text fill="rgb(145,145,145)" font-family="Courier New" font-size="12" x="1867" y="7279">@</text><rect fill="none" height="92" stroke="black" stroke-width="0.5" width="59" x="953" y="7176" /><text fill="rgb(146,146,146)" font-family="Courier New" font-size="12" x="953" y="7268">Ê</text><rect fill="none" height="84" stroke="black" stroke-width="0.5" width="60" x="2087" y="7063" /><text fill="rgb(145,145,145)" font-family="Courier New" font-size="12" x="2087" y="7147">Ø</text><rect fill="none" height="82" stroke="black" stroke-width="0.5" width="34" x="1928" y="7063" /><text fill="rgb(123,123,123)" font-family="Courier New" font-size="12" x="1928" y="7145">@</text><rect fill="none" height="79" stroke="black" stroke-width="0.5" width="39" x="903" y="7063" /><text fill="rgb(129,129,129)" font-family="Courier New" font-size="12" x="903" y="7142">Æ</text><rect fill="none" height="80" stroke="black" stroke-width="0.5" width="35" x="793" y="7063" /><text fill="rgb(124,124,124)" font-family="Courier New" font-size="12" x="793" y="7143">ê</text><rect fill="none" height="81" stroke="black" stroke-width="0.5" width="40" x="2038" y="7062" /><text fill="rgb(131,131,131)" font-family="Courier New" font-size="12" x="2038" y="7143">Ê</text><rect fill="none" height="85" stroke="black" stroke-width="0.5" width="54" x="1978" y="7062" /><text fill="rgb(142,142,142)" font-family="Courier New" font-size="12" x="1978" y="7147">Ø</text><rect fill="none" height="97" stroke="black" stroke-width="0.5" width="56" x="842" y="7062" /><text fill="rgb(145,145,145)" font-family="Courier New" font-size="12" x="842" y="7159">Ø</text><rect fill="none" height="88" stroke="black" stroke-width="0.5" width="224" x="563" y="7062" /><text fill="rgb(144,144,144)" font-family="Courier New" font-size="12" x="563" y="7150">Þ</text><rect fill="none" height="92" stroke="black" stroke-width="0.5" width="59" x="953" y="7056" /><text fill="rgb(146,146,146)" font-family="Courier New" font-size="12" x="953" y="7148">\</text><rect fill="none" height="95" stroke="black" stroke-width="0.5" width="225" x="1697" y="7055" /><text fill="rgb(146,146,146)" font-family="Courier New" font-size="12" x="1697" y="7150">?</text><rect fill="none" height="79" stroke="black" stroke-width="0.5" width="35" x="1983" y="6943" /><text fill="rgb(119,119,119)" font-family="Courier New" font-size="12" x="1983" y="7022">?</text><rect fill="none" height="82" stroke="black" stroke-width="0.5" width="34" x="1928" y="6943" /><text fill="rgb(123,123,123)" font-family="Courier New" font-size="12" x="1928" y="7025">?</text><rect fill="none" height="80" stroke="black" stroke-width="0.5" width="35" x="1873" y="6943" /><text fill="rgb(124,124,124)" font-family="Courier New" font-size="12" x="1873" y="7023">Â</text><rect fill="none" height="80" stroke="black" stroke-width="0.5" width="40" x="903" y="6943" /><text fill="rgb(130,130,130)" font-family="Courier New" font-size="12" x="903" y="7023">Æ</text><rect fill="none" height="82" stroke="black" stroke-width="0.5" width="34" x="848" y="6943" /><text fill="rgb(123,123,123)" font-family="Courier New" font-size="12" x="848" y="7025">Ê</text><rect fill="none" height="80" stroke="black" stroke-width="0.5" width="35" x="793" y="6943" /><text fill="rgb(124,124,124)" font-family="Courier New" font-size="12" x="793" y="7023">X</text><rect fill="none" height="86" stroke="black" stroke-width="0.5" width="55" x="1812" y="6942" /><text fill="rgb(142,142,142)" font-family="Courier New" font-size="12" x="1812" y="7028">@</text><rect fill="none" height="85" stroke="black" stroke-width="0.5" width="155" x="1643" y="6942" /><text fill="rgb(141,141,141)" font-family="Courier New" font-size="12" x="1643" y="7027">Æ</text><rect fill="none" height="81" stroke="black" stroke-width="0.5" width="40" x="958" y="6942" /><text fill="rgb(131,131,131)" font-family="Courier New" font-size="12" x="958" y="7023">Þ</text><rect fill="none" height="86" stroke="black" stroke-width="0.5" width="55" x="732" y="6942" /><text fill="rgb(142,142,142)" font-family="Courier New" font-size="12" x="732" y="7028">Ú</text><rect fill="none" height="80" stroke="black" stroke-width="0.5" width="34" x="683" y="6942" /><text fill="rgb(123,123,123)" font-family="Courier New" font-size="12" x="683" y="7022">Þ</text><rect fill="none" height="85" stroke="black" stroke-width="0.5" width="100" x="563" y="6942" /><text fill="rgb(141,141,141)" font-family="Courier New" font-size="12" x="563" y="7027">@</text><rect fill="none" height="92" stroke="black" stroke-width="0.5" width="59" x="2033" y="6936" /><text fill="rgb(146,146,146)" font-family="Courier New" font-size="12" x="2033" y="7028">Ø</text><rect fill="none" height="82" stroke="black" stroke-width="0.5" width="34" x="1928" y="6823" /><text fill="rgb(123,123,123)" font-family="Courier New" font-size="12" x="1928" y="6905">Â</text><rect fill="none" height="80" stroke="black" stroke-width="0.5" width="35" x="1873" y="6823" /><text fill="rgb(124,124,124)" font-family="Courier New" font-size="12" x="1873" y="6903">@</text><rect fill="none" height="82" stroke="black" stroke-width="0.5" width="35" x="848" y="6823" /><text fill="rgb(123,123,123)" font-family="Courier New" font-size="12" x="848" y="6905">Ð</text><rect fill="none" height="80" stroke="black" stroke-width="0.5" width="35" x="793" y="6823" /><text fill="rgb(124,124,124)" font-family="Courier New" font-size="12" x="793" y="6903">Ê</text><rect fill="none" height="86" stroke="black" stroke-width="0.5" width="55" x="1812" y="6822" /><text fill="rgb(142,142,142)" font-family="Courier New" font-size="12" x="1812" y="6908">ä</text><rect fill="none" height="81" stroke="black" stroke-width="0.5" width="40" x="1758" y="6822" /><text fill="rgb(131,131,131)" font-family="Courier New" font-size="12" x="1758" y="6903">ä</text></svg>