<?xml version="1.0" encoding="utf-8" ?>
<svg baseProfile="full" height="8415" version="1.1" width="5950" xmlns="http://www.w3.org/2000/svg" xmlns:ev="http://www.w3.org/2001/xml-events" xmlns:xlink="http://www.w3.org/1999/xlink"><defs /><rect fill="none" height="89" stroke="black" stroke-width="0.5" width="104" x="778" y="5498" /><text fill="rgb(144,164,162)" font-family="Courier New" font-size="12" x="778" y="5587">T</text><rect fill="none" height="85" stroke="black" stroke-width="0.5" width="39" x="633" y="5498" /><text fill="rgb(135,170,167)" font-family="Courier New" font-size="12" x="633" y="5583">h</text><rect fill="none" height="90" stroke="black" stroke-width="0.5" width="64" x="563" y="5498" /><text fill="rgb(158,186,183)" font-family="Courier New" font-size="12" x="563" y="5588">i</text><rect fill="none" height="91" stroke="black" stroke-width="0.5" width="125" x="1143" y="5497" /><text fill="rgb(141,141,141)" font-family="Courier New" font-size="12" x="1143" y="5588">s</text><rect fill="none" height="91" stroke="black" stroke-width="0.5" width="104" x="1023" y="5497" /><text fill="rgb(134,134,134)" font-family="Courier New" font-size="12" x="1023" y="5588">I</text><rect fill="none" height="86" stroke="black" stroke-width="0.5" width="40" x="968" y="5497" /><text fill="rgb(112,112,112)" font-family="Courier New" font-size="12" x="968" y="5583">s</text><rect fill="none" height="86" stroke="black" stroke-width="0.5" width="40" x="908" y="5497" /><text fill="rgb(111,111,111)" font-family="Courier New" font-size="12" x="908" y="5583">A</text><rect fill="none" height="86" stroke="black" stroke-width="0.5" width="39" x="693" y="5497" /><text fill="rgb(136,170,167)" font-family="Courier New" font-size="12" x="693" y="5583">T</text><rect fill="none" height="90" stroke="black" stroke-width="0.5" width="64" x="1083" y="5378" /><text fill="rgb(158,186,183)" font-family="Courier New" font-size="12" x="1083" y="5468">e</text><rect fill="none" height="84" stroke="black" stroke-width="0.5" width="39" x="1028" y="5378" /><text fill="rgb(130,166,164)" font-family="Courier New" font-size="12" x="1028" y="5462">s</text><rect fill="none" height="85" stroke="black" stroke-width="0.5" width="40" x="968" y="5378" /><text fill="rgb(136,170,167)" font-family="Courier New" font-size="12" x="968" y="5463">t</text><rect fill="none" height="85" stroke="black" stroke-width="0.5" width="39" x="908" y="5378" /><text fill="rgb(136,170,167)" font-family="Courier New" font-size="12" x="908" y="5463">T</text><rect fill="none" height="89" stroke="black" stroke-width="0.5" width="64" x="838" y="5378" /><text fill="rgb(158,186,183)" font-family="Courier New" font-size="12" x="838" y="5467">h</text><rect fill="none" height="89" stroke="black" stroke-width="0.5" width="60" x="687" y="5378" /><text fill="rgb(157,185,183)" font-family="Courier New" font-size="12" x="687" y="5467">i</text><rect fill="none" height="85" stroke="black" stroke-width="0.5" width="39" x="633" y="5378" /><text fill="rgb(135,170,167)" font-family="Courier New" font-size="12" x="633" y="5463">s</text><rect fill="none" height="90" stroke="black" stroke-width="0.5" width="64" x="563" y="5378" /><text fill="rgb(158,186,183)" font-family="Courier New" font-size="12" x="563" y="5468">I</text><rect fill="none" height="86" stroke="black" stroke-width="0.5" width="40" x="753" y="5377" /><text fill="rgb(132,168,165)" font-family="Courier New" font-size="12" x="753" y="5463">s</text><rect fill="none" height="89" stroke="black" stroke-width="0.5" width="59" x="1423" y="5258" /><text fill="rgb(158,186,184)" font-family="Courier New" font-size="12" x="1423" y="5347">A</text><rect fill="none" height="89" stroke="black" stroke-width="0.5" width="59" x="1238" y="5258" /><text fill="rgb(156,185,182)" font-family="Courier New" font-size="12" x="1238" y="5347">T</text><rect fill="none" height="90" stroke="black" stroke-width="0.5" width="124" x="1083" y="5258" /><text fill="rgb(157,185,183)" font-family="Courier New" font-size="12" x="1083" y="5348">e</text></svg>